<svg xmlns="http://www.w3.org/2000/svg" viewBox="0 0 824 463" width="824" height="463">
  <defs>
    <linearGradient id="cbGrad" x1="0" y1="0" x2="0" y2="1">
      <stop offset="0%" stop-color="#E7D3FA"/>
      <stop offset="55%" stop-color="#A566F5"/>
      <stop offset="100%" stop-color="#5A12B6"/>
    </linearGradient>
    <filter id="softShadow" x="-5%" y="-5%" width="110%" height="110%">
      <feDropShadow dx="0" dy="2" stdDeviation="1.5" flood-color="#3A0A78" flood-opacity="0.45"/>
    </filter>
  </defs>
  <rect width="100%" height="100%" fill="#000000"/>
  <g fill="url(#cbGrad)" fill-rule="evenodd" filter="url(#softShadow)">
    <path d="
    M 758 382 L 753 388 L 751 394 L 751 398 L 753 405 L 757 409 L 764 413 L 780 416 L 784 418 L 784 423 L 780 425 L 773 425 L 764 423 L 762 421 L 760 421 L 757 419 L 754 422 L 753 426 L 750 430 L 750 432 L 753 433 L 755 435 L 759 436 L 759 440 L 761 440 L 762 438 L 782 439 L 788 438 L 795 434 L 801 435 L 803 434 L 801 431 L 800 433 L 798 431 L 801 427 L 803 429 L 801 426 L 802 415 L 800 411 L 802 410 L 800 408 L 792 404 L 786 403 L 784 401 L 778 401 L 773 399 L 769 394 L 772 391 L 783 391 L 791 395 L 795 394 L 795 392 L 797 391 L 797 389 L 800 385 L 801 387 L 803 385 L 802 383 L 800 381 L 796 381 L 793 379 L 785 377 L 768 377 Z
    M 658 378 L 658 438 L 667 439 L 675 439 L 675 377 Z
    M 441 378 L 440 415 L 441 424 L 443 428 L 447 433 L 445 435 L 447 433 L 452 438 L 455 438 L 456 439 L 460 439 L 463 440 L 465 442 L 468 439 L 470 439 L 470 441 L 472 441 L 472 438 L 478 435 L 481 435 L 483 439 L 492 439 L 498 438 L 499 426 L 499 378 L 497 377 L 481 377 L 480 384 L 481 413 L 478 419 L 473 423 L 464 423 L 459 418 L 458 415 L 457 377 L 445 377 L 444 378 Z
    M 708 377 L 705 379 L 702 379 L 695 383 L 688 391 L 686 389 L 687 395 L 684 401 L 685 404 L 684 415 L 687 421 L 687 424 L 697 434 L 701 436 L 705 437 L 708 440 L 709 438 L 723 439 L 725 441 L 724 439 L 730 438 L 734 435 L 736 435 L 741 433 L 741 431 L 743 430 L 743 427 L 735 419 L 733 419 L 729 422 L 723 424 L 714 424 L 710 423 L 705 419 L 704 417 L 704 415 L 706 413 L 746 412 L 746 399 L 743 391 L 737 384 L 739 382 L 736 381 L 735 379 L 736 381 L 734 382 L 732 380 L 723 377 L 714 376 Z
    M 703 398 L 708 394 L 709 392 L 711 391 L 720 391 L 724 393 L 725 394 L 725 395 L 727 398 L 729 400 L 703 400 Z
    M 306 379 L 304 380 L 300 384 L 299 384 L 296 387 L 294 391 L 292 393 L 290 393 L 291 398 L 289 406 L 289 412 L 291 420 L 295 427 L 298 430 L 296 433 L 294 432 L 297 435 L 298 433 L 301 433 L 308 437 L 310 437 L 311 439 L 314 440 L 333 438 L 334 440 L 334 438 L 341 435 L 347 430 L 347 427 L 345 424 L 338 419 L 332 423 L 327 424 L 318 424 L 314 422 L 309 417 L 308 415 L 310 413 L 351 412 L 351 401 L 349 393 L 347 390 L 347 388 L 345 388 L 345 386 L 339 381 L 335 379 L 325 376 L 318 377 L 316 376 Z
    M 308 399 L 309 397 L 314 392 L 316 391 L 326 391 L 328 392 L 333 397 L 334 400 L 332 401 L 331 402 L 317 402 Z
    M 282 376 L 275 378 L 267 382 L 266 377 L 251 377 L 249 379 L 250 438 L 263 438 L 266 439 L 267 441 L 269 440 L 269 438 L 267 438 L 267 406 L 269 401 L 274 396 L 276 395 L 280 394 L 287 393 Z
    M 184 384 L 176 399 L 175 403 L 175 413 L 176 417 L 178 422 L 180 424 L 180 426 L 183 431 L 186 432 L 184 434 L 186 433 L 188 433 L 192 435 L 194 437 L 200 439 L 220 438 L 222 439 L 223 436 L 229 436 L 229 434 L 232 433 L 233 429 L 236 426 L 238 423 L 241 415 L 242 408 L 241 397 L 238 394 L 238 392 L 231 384 L 223 379 L 220 379 L 217 377 L 211 376 L 206 376 L 197 378 L 189 382 L 186 385 Z
    M 202 394 L 206 393 L 212 393 L 215 394 L 217 395 L 220 398 L 222 402 L 222 414 L 221 416 L 218 420 L 217 421 L 216 421 L 214 423 L 203 423 L 199 421 L 198 420 L 198 419 L 196 417 L 195 415 L 194 412 L 194 404 L 195 401 L 196 399 L 199 396 Z
    M 361 359 L 361 438 L 412 438 L 412 440 L 414 439 L 412 438 L 415 436 L 420 435 L 426 431 L 429 433 L 427 429 L 431 424 L 431 408 L 428 404 L 430 403 L 428 404 L 426 398 L 425 401 L 421 398 L 423 397 L 422 395 L 425 394 L 426 391 L 428 392 L 426 391 L 426 389 L 428 387 L 429 382 L 429 375 L 428 372 L 428 368 L 427 370 L 422 364 L 419 362 L 417 362 L 415 360 L 411 359 L 402 358 Z
    M 379 422 L 380 420 L 379 415 L 380 407 L 387 405 L 406 406 L 411 409 L 409 410 L 410 411 L 411 409 L 412 411 L 413 412 L 413 416 L 412 418 L 409 421 L 405 423 L 387 424 Z
    M 380 374 L 403 374 L 406 375 L 409 378 L 410 381 L 410 383 L 409 386 L 406 389 L 403 389 L 402 391 L 401 389 L 400 391 L 381 392 L 380 390 L 379 389 Z
    M 52 358 L 36 367 L 30 374 L 27 379 L 23 390 L 23 403 L 20 404 L 21 406 L 22 404 L 24 407 L 26 415 L 28 417 L 28 419 L 33 426 L 41 432 L 42 435 L 43 433 L 45 435 L 48 436 L 48 438 L 49 436 L 54 440 L 54 438 L 56 438 L 58 440 L 71 439 L 76 440 L 77 438 L 80 438 L 85 436 L 94 431 L 100 425 L 99 421 L 94 414 L 91 413 L 85 414 L 85 415 L 80 419 L 70 423 L 63 423 L 57 421 L 53 418 L 55 417 L 51 417 L 45 410 L 43 405 L 43 391 L 46 384 L 51 379 L 59 374 L 65 373 L 75 374 L 84 379 L 88 384 L 92 380 L 96 378 L 101 372 L 98 368 L 93 364 L 84 359 L 77 357 L 56 357 Z
    M 572 352 L 556 352 L 554 355 L 554 382 L 553 380 L 550 380 L 545 377 L 541 376 L 532 376 L 528 377 L 519 382 L 514 387 L 510 393 L 507 402 L 508 409 L 507 414 L 509 418 L 508 421 L 513 428 L 515 429 L 517 432 L 515 433 L 514 435 L 515 433 L 519 433 L 524 437 L 530 439 L 544 439 L 545 438 L 549 438 L 551 435 L 552 435 L 554 433 L 556 439 L 572 438 L 573 361 Z
    M 538 392 L 544 392 L 550 395 L 552 397 L 554 402 L 555 406 L 555 410 L 552 413 L 554 415 L 552 418 L 548 422 L 547 422 L 545 424 L 543 423 L 538 424 L 534 423 L 530 421 L 529 420 L 527 416 L 525 411 L 525 407 L 526 403 L 528 399 L 534 394 L 534 396 L 536 395 L 534 394 Z
    M 109 352 L 108 355 L 108 407 L 109 423 L 108 424 L 108 438 L 114 439 L 116 438 L 126 438 L 126 402 L 130 396 L 135 393 L 142 393 L 145 394 L 149 400 L 150 404 L 150 438 L 164 438 L 166 439 L 168 438 L 168 396 L 166 389 L 162 384 L 162 382 L 159 381 L 153 377 L 147 376 L 134 378 L 130 380 L 129 382 L 127 383 L 126 354 L 125 352 Z
    M 645 352 L 628 351 L 627 382 L 626 381 L 625 382 L 624 380 L 613 376 L 602 377 L 600 379 L 595 380 L 592 382 L 587 387 L 585 390 L 581 400 L 581 416 L 582 420 L 584 424 L 583 426 L 584 424 L 587 429 L 591 433 L 597 437 L 606 440 L 613 440 L 617 438 L 620 440 L 620 438 L 622 436 L 628 434 L 630 439 L 635 438 L 645 438 Z
    M 609 392 L 617 392 L 623 395 L 624 396 L 624 397 L 626 399 L 627 401 L 628 404 L 628 411 L 626 417 L 623 420 L 621 419 L 619 421 L 621 422 L 617 424 L 612 424 L 608 423 L 604 420 L 605 418 L 604 420 L 603 417 L 604 415 L 603 413 L 599 411 L 601 408 L 599 406 L 600 402 L 602 398 L 604 398 L 604 396 L 607 393 Z
    M 663 350 L 660 352 L 658 354 L 656 358 L 656 362 L 658 366 L 661 369 L 663 370 L 671 370 L 673 369 L 677 365 L 677 355 L 674 352 L 670 350 Z
    M 398 258 L 397 256 L 393 253 L 395 249 L 392 253 L 390 251 L 391 249 L 389 248 L 387 249 L 386 247 L 381 244 L 372 236 L 368 234 L 365 230 L 362 228 L 362 226 L 357 224 L 352 224 L 349 229 L 339 237 L 336 237 L 336 239 L 330 243 L 324 244 L 322 246 L 315 246 L 311 248 L 292 248 L 291 249 L 289 249 L 289 252 L 282 262 L 278 266 L 276 270 L 270 275 L 267 282 L 257 294 L 258 298 L 267 300 L 270 302 L 285 305 L 314 305 L 333 302 L 336 300 L 340 300 L 342 298 L 346 298 L 360 293 L 358 292 L 364 289 L 366 287 L 369 286 L 372 287 L 371 285 L 374 282 L 382 278 L 384 274 L 388 271 L 389 273 L 397 262 Z
    M 481 55 L 355 183 L 371 199 L 370 201 L 371 199 L 378 208 L 390 217 L 393 223 L 409 236 L 409 239 L 411 238 L 412 304 L 557 304 L 573 302 L 588 296 L 591 297 L 591 295 L 597 298 L 601 296 L 598 295 L 602 291 L 600 290 L 604 287 L 606 288 L 606 286 L 617 278 L 627 258 L 630 256 L 629 252 L 632 241 L 630 214 L 622 194 L 625 196 L 623 194 L 620 195 L 607 183 L 606 179 L 601 179 L 601 176 L 597 177 L 592 174 L 600 169 L 598 168 L 610 154 L 615 142 L 617 117 L 613 100 L 604 84 L 592 72 L 570 60 L 541 55 Z
    M 470 207 L 472 205 L 525 206 L 529 205 L 538 207 L 541 205 L 544 205 L 554 207 L 557 208 L 559 210 L 561 210 L 568 217 L 571 225 L 571 231 L 570 237 L 566 244 L 559 250 L 548 254 L 469 253 Z
    M 469 109 L 535 108 L 545 112 L 554 121 L 554 124 L 555 127 L 557 129 L 556 130 L 557 132 L 554 143 L 547 151 L 544 153 L 543 153 L 541 155 L 538 155 L 535 157 L 529 158 L 478 158 L 469 156 L 470 122 L 469 114 L 470 110 Z
    M 364 65 L 356 62 L 354 60 L 348 59 L 346 57 L 342 57 L 338 55 L 333 55 L 327 52 L 319 51 L 282 52 L 273 54 L 267 57 L 263 57 L 258 60 L 253 61 L 230 75 L 209 96 L 205 103 L 203 104 L 200 109 L 200 111 L 198 112 L 197 116 L 193 122 L 187 146 L 196 155 L 230 177 L 232 179 L 230 180 L 233 179 L 236 183 L 235 185 L 237 182 L 240 184 L 242 183 L 244 185 L 243 183 L 244 161 L 246 153 L 251 140 L 260 127 L 269 119 L 273 117 L 274 119 L 275 118 L 273 117 L 275 115 L 294 108 L 310 108 L 316 110 L 322 110 L 360 72 L 364 67 Z
    M 441 20 L 430 29 L 424 31 L 416 42 L 355 97 L 349 106 L 250 202 L 243 206 L 233 202 L 160 153 L 157 148 L 154 148 L 155 146 L 151 146 L 149 139 L 142 136 L 140 139 L 136 136 L 134 138 L 136 146 L 138 145 L 139 153 L 143 153 L 142 157 L 143 155 L 153 165 L 161 180 L 164 181 L 174 196 L 175 201 L 181 206 L 182 212 L 185 216 L 186 214 L 197 229 L 200 237 L 204 239 L 239 290 L 246 285 L 273 248 L 276 249 L 275 244 L 283 234 L 285 237 L 282 240 L 286 240 L 283 240 L 283 233 L 311 195 L 317 191 L 316 189 L 320 183 L 323 182 L 336 163 L 337 165 L 336 163 L 338 160 L 340 161 L 338 160 L 346 150 L 348 151 L 346 149 L 396 84 L 398 87 L 396 83 L 417 55 L 422 53 L 421 55 L 419 52 L 428 40 L 429 42 Z
    "/>
  </g>
</svg>